<svg width="505" height="464" viewBox="0 0 505 464" fill="none" xmlns="http://www.w3.org/2000/svg">
<g opacity="0.7">
<path d="M25.6491 464H0C0 416.975 7.939 371.266 23.5117 328.516C29.6186 312.074 36.6416 296.289 44.8859 280.833L48.2447 274.585L54.9623 273.928C68.0922 272.941 88.8558 269.982 112.367 260.774C146.566 247.62 174.353 226.574 195.116 198.293C211.3 176.261 222.597 150.94 228.704 122.659L201.223 18.7442L227.178 0L234.506 5.91921C251.3 19.4018 269.01 32.2268 287.331 43.0787C298.934 50.3133 311.148 56.8901 323.362 62.8094C346.873 61.8228 370.69 59.1921 393.897 55.5748C422.905 50.9709 451.912 44.7229 480.31 36.5018L491.913 33.2133L495.882 45.7094C502.905 68.7286 505.959 92.4054 504.737 116.411C503.821 139.101 498.936 161.134 490.691 181.851L467.18 170.999C474.203 153.242 478.172 134.169 479.088 114.767C480.004 98.6534 478.478 82.54 474.813 66.7555C449.47 73.6612 423.515 79.2516 397.561 83.1977C372.522 87.1439 346.873 89.4458 321.224 90.7612H318.171L315.423 89.4458C301.682 82.54 287.941 75.3055 274.506 67.0843C260.46 58.5344 246.414 48.9979 232.979 38.8037L255.575 122.001L254.964 125.29C247.941 159.161 234.811 189.415 215.574 215.393C191.757 247.949 160.001 271.626 121.222 286.753C98.6268 295.303 78.474 299.249 63.8174 300.893C57.7104 313.06 52.2142 325.885 47.3287 338.71C32.9774 378.172 25.6491 420.264 25.6491 464Z" fill="black"/>
<path d="M94.0475 464.001V458.411C94.0475 444.599 97.4064 434.076 103.819 427.499C113.895 417.634 128.857 418.292 129.773 418.292H130.078H314.202H314.813H315.729C316.645 418.292 328.859 417.305 337.714 426.184C345.347 433.747 349.317 446.243 349.317 464.001H374.966C374.966 438.022 367.943 418.292 354.508 405.138C338.325 389.682 318.477 390.34 313.591 390.669H131.605C127.025 390.34 104.124 390.011 86.7192 406.782C74.5054 418.62 68.3984 436.049 68.3984 458.082V463.672H94.0475V464.001Z" fill="black"/>
<path d="M396.95 267.351C414.049 330.49 421.988 396.587 421.072 464H446.721C447.637 393.957 439.087 325.228 421.683 259.459C418.019 245.976 414.049 232.494 409.469 219.34L464.431 243.674L474.202 218.025L398.476 184.482L378.629 209.803L381.377 217.367C387.179 233.809 392.369 250.58 396.95 267.351Z" fill="black"/>
</g>
</svg>
